<svg xmlns="http://www.w3.org/2000/svg" xmlns:xlink="http://www.w3.org/1999/xlink" viewBox="0 0 800 600" width="800" height="600" preserveAspectRatio="xMidYMid meet" style="width: 100%; height: 100%; transform: translate3d(0px, 0px, 0px); content-visibility: visible;"><defs><clipPath id="__lottie_element_2"><rect width="800" height="600" x="0" y="0"></rect></clipPath><clipPath id="__lottie_element_4"><path d="M0,0 L800,0 L800,600 L0,600z"></path></clipPath><filter id="__lottie_element_6" x="-100%" y="-100%" width="300%" height="300%"><feGaussianBlur result="filter_result_0" stdDeviation="12.389999999999999 12.389999999999999" edgeMode="duplicate"></feGaussianBlur></filter><clipPath id="__lottie_element_8"><path d="M0,0 L800,0 L800,600 L0,600z"></path></clipPath></defs><g clip-path="url(#__lottie_element_2)"><g clip-path="url(#__lottie_element_4)" filter="url(#__lottie_element_6)" transform="matrix(1,0,0,1,0,20)" opacity="0.56" style="display: block;"><g style="display: none;" transform="matrix(-0.5,-0.8660253882408142,0.8660253882408142,-0.5,398.82940673828125,302.1284484863281)" opacity="1"><g opacity="1" transform="matrix(1,0,0,1,1.2580000162124634,2.078000068664551)"><path stroke-linecap="round" stroke-linejoin="miter" fill-opacity="0" stroke-miterlimit="4" stroke="rgb(23,98,223)" stroke-opacity="1" stroke-width="40" d=" M0,-100 C10.784000396728516,-100 21.17099952697754,-98.28900146484375 30.905000686645508,-95.125"></path></g></g><g style="display: none;" transform="matrix(-0.1736481785774231,-0.9848077297210693,0.9848077297210693,-0.1736481785774231,398.1720275878906,301.5997314453125)" opacity="1"><g opacity="1" transform="matrix(1,0,0,1,1.2580000162124634,2.078000068664551)"><path stroke-linecap="round" stroke-linejoin="miter" fill-opacity="0" stroke-miterlimit="4" stroke="rgb(23,98,223)" stroke-opacity="1" stroke-width="40" d=" M0,-100 C10.784000396728516,-100 21.17099952697754,-98.28900146484375 30.905000686645508,-95.125"></path></g></g><g style="display: none;" transform="matrix(0.1736481785774231,-0.9848077297210693,0.9848077297210693,0.1736481785774231,397.735107421875,300.8780517578125)" opacity="1"><g opacity="1" transform="matrix(1,0,0,1,1.2580000162124634,2.078000068664551)"><path stroke-linecap="round" stroke-linejoin="miter" fill-opacity="0" stroke-miterlimit="4" stroke="rgb(23,98,223)" stroke-opacity="1" stroke-width="40" d=" M0,-100 C10.784000396728516,-100 21.17099952697754,-98.28900146484375 30.905000686645508,-95.125"></path></g></g><g style="display: none;" transform="matrix(0.5,-0.8660253882408142,0.8660253882408142,0.5,397.5714111328125,300.0504455566406)" opacity="1"><g opacity="1" transform="matrix(1,0,0,1,1.2580000162124634,2.078000068664551)"><path stroke-linecap="round" stroke-linejoin="miter" fill-opacity="0" stroke-miterlimit="4" stroke="rgb(23,98,223)" stroke-opacity="1" stroke-width="40" d=" M51.654998779296875,-85.6240005493164 C60.652000427246094,-80.18099975585938 68.7229995727539,-73.36000061035156 75.5770034790039,-65.45500183105469"></path></g></g><g style="display: none;" transform="matrix(0.7660444378852844,-0.6427876353263855,0.6427876353263855,0.7660444378852844,397.7005920410156,299.216796875)" opacity="1"><g opacity="1" transform="matrix(1,0,0,1,1.2580000162124634,2.078000068664551)"><path stroke-linecap="round" stroke-linejoin="miter" fill-opacity="0" stroke-miterlimit="4" stroke="rgb(23,98,223)" stroke-opacity="1" stroke-width="40" d=" M99.9800033569336,-2.010999917984009 C99.99299621582031,-1.3420000076293945 100,-0.671999990940094 100,0 C100,10.07800006866455 98.50599670410156,19.81100082397461 95.72699737548828,28.98699951171875"></path></g></g><g style="display: none;" transform="matrix(0.9396926164627075,-0.3420201539993286,0.3420201539993286,0.9396926164627075,398.1071472167969,298.4775695800781)" opacity="1"><g opacity="1" transform="matrix(1,0,0,1,1.2580000162124634,2.078000068664551)"><path stroke-linecap="round" stroke-linejoin="miter" fill-opacity="0" stroke-miterlimit="4" stroke="rgb(23,98,223)" stroke-opacity="1" stroke-width="40" d=" M86.61599731445312,49.979000091552734 C81.34600067138672,59.084999084472656 74.68099975585938,67.28600311279297 66.91500091552734,74.28700256347656"></path></g></g><g transform="matrix(1,0,0,1,398.74200439453125,297.9219970703125)" opacity="1" style="display: none;"><g opacity="1" transform="matrix(1,0,0,1,1.2580000162124634,2.078000068664551)"><path stroke-linecap="round" stroke-linejoin="miter" fill-opacity="0" stroke-miterlimit="4" stroke="rgb(23,98,223)" stroke-opacity="1" stroke-width="40" d=" M86.61599731445312,49.979000091552734 C81.34600067138672,59.084999084472656 74.68099975585938,67.28600311279297 66.91500091552734,74.28700256347656"></path></g></g><g transform="matrix(0.9396926164627075,0.3420201539993286,-0.3420201539993286,0.9396926164627075,399.5285949707031,297.6170654296875)" opacity="1" style="display: none;"><g opacity="1" transform="matrix(1,0,0,1,1.2580000162124634,2.078000068664551)"><path stroke-linecap="round" stroke-linejoin="miter" fill-opacity="0" stroke-miterlimit="4" stroke="rgb(23,98,223)" stroke-opacity="1" stroke-width="40" d=" M86.61599731445312,49.979000091552734 C81.34600067138672,59.084999084472656 74.68099975585938,67.28600311279297 66.91500091552734,74.28700256347656"></path></g></g><g transform="matrix(0.7660444378852844,0.6427876353263855,-0.6427876353263855,0.7660444378852844,400.3720397949219,297.5995178222656)" opacity="1" style="display: none;"><g opacity="1" transform="matrix(1,0,0,1,1.2580000162124634,2.078000068664551)"><path stroke-linecap="round" stroke-linejoin="miter" fill-opacity="0" stroke-miterlimit="4" stroke="rgb(23,98,223)" stroke-opacity="1" stroke-width="40" d=" M86.61599731445312,49.979000091552734 C81.34600067138672,59.084999084472656 74.68099975585938,67.28600311279297 66.91500091552734,74.28700256347656"></path></g></g><g transform="matrix(0.5,0.8660253882408142,-0.8660253882408142,0.5,401.17059326171875,297.8715515136719)" opacity="1" style="display: none;"><g opacity="1" transform="matrix(1,0,0,1,1.2580000162124634,2.078000068664551)"><path stroke-linecap="round" stroke-linejoin="miter" fill-opacity="0" stroke-miterlimit="4" stroke="rgb(23,98,223)" stroke-opacity="1" stroke-width="40" d=" M86.61599731445312,49.979000091552734 C81.34600067138672,59.084999084472656 74.68099975585938,67.28600311279297 66.91500091552734,74.28700256347656"></path></g></g><g transform="matrix(0.1736481785774231,0.9848077297210693,-0.9848077297210693,0.1736481785774231,401.8279724121094,298.4002685546875)" opacity="1" style="display: none;"><g opacity="1" transform="matrix(1,0,0,1,1.2580000162124634,2.078000068664551)"><path stroke-linecap="round" stroke-linejoin="miter" fill-opacity="0" stroke-miterlimit="4" stroke="rgb(23,98,223)" stroke-opacity="1" stroke-width="40" d=" M86.61599731445312,49.979000091552734 C81.34600067138672,59.084999084472656 74.68099975585938,67.28600311279297 66.91500091552734,74.28700256347656"></path></g></g><g transform="matrix(-0.1736481785774231,0.9848077297210693,-0.9848077297210693,-0.1736481785774231,402.264892578125,299.1219482421875)" opacity="1" style="display: none;"><g opacity="1" transform="matrix(1,0,0,1,1.2580000162124634,2.078000068664551)"><path stroke-linecap="round" stroke-linejoin="miter" fill-opacity="0" stroke-miterlimit="4" stroke="rgb(23,98,223)" stroke-opacity="1" stroke-width="40" d=" M86.61599731445312,49.979000091552734 C81.34600067138672,59.084999084472656 74.68099975585938,67.28600311279297 66.91500091552734,74.28700256347656"></path></g></g><g transform="matrix(-0.5,0.8660253882408142,-0.8660253882408142,-0.5,402.4285888671875,299.9495544433594)" opacity="1" style="display: block;"><g opacity="1" transform="matrix(1,0,0,1,1.2580000162124634,2.078000068664551)"><path stroke-linecap="round" stroke-linejoin="miter" fill-opacity="0" stroke-miterlimit="4" stroke="rgb(23,98,223)" stroke-opacity="1" stroke-width="40" d=" M0,-100 C10.784000396728516,-100 21.17099952697754,-98.28900146484375 30.905000686645508,-95.125"></path></g></g><g transform="matrix(-0.7660444378852844,0.6427876353263855,-0.6427876353263855,-0.7660444378852844,402.2994079589844,300.783203125)" opacity="1" style="display: block;"><g opacity="1" transform="matrix(1,0,0,1,1.2580000162124634,2.078000068664551)"><path stroke-linecap="round" stroke-linejoin="miter" fill-opacity="0" stroke-miterlimit="4" stroke="rgb(23,98,223)" stroke-opacity="1" stroke-width="40" d=" M0,-100 C10.784000396728516,-100 21.17099952697754,-98.28900146484375 30.905000686645508,-95.125"></path></g></g><g transform="matrix(-0.9396926164627075,0.3420201539993286,-0.3420201539993286,-0.9396926164627075,401.8928527832031,301.5224304199219)" opacity="1" style="display: block;"><g opacity="1" transform="matrix(1,0,0,1,1.2580000162124634,2.078000068664551)"><path stroke-linecap="round" stroke-linejoin="miter" fill-opacity="0" stroke-miterlimit="4" stroke="rgb(23,98,223)" stroke-opacity="1" stroke-width="40" d=" M0,-100 C10.784000396728516,-100 21.17099952697754,-98.28900146484375 30.905000686645508,-95.125"></path></g></g><g transform="matrix(-1,0,0,-1,401.25799560546875,302.0780029296875)" opacity="1" style="display: block;"><g opacity="1" transform="matrix(1,0,0,1,1.2580000162124634,2.078000068664551)"><path stroke-linecap="round" stroke-linejoin="miter" fill-opacity="0" stroke-miterlimit="4" stroke="rgb(23,98,223)" stroke-opacity="1" stroke-width="40" d=" M0,-100 C10.784000396728516,-100 21.17099952697754,-98.28900146484375 30.905000686645508,-95.125"></path></g></g><g transform="matrix(-0.9396926164627075,-0.3420201539993286,0.3420201539993286,-0.9396926164627075,400.4714050292969,302.3829345703125)" opacity="1" style="display: block;"><g opacity="1" transform="matrix(1,0,0,1,1.2580000162124634,2.078000068664551)"><path stroke-linecap="round" stroke-linejoin="miter" fill-opacity="0" stroke-miterlimit="4" stroke="rgb(23,98,223)" stroke-opacity="1" stroke-width="40" d=" M0,-100 C10.784000396728516,-100 21.17099952697754,-98.28900146484375 30.905000686645508,-95.125"></path></g></g><g transform="matrix(-0.7660444378852844,-0.6427876353263855,0.6427876353263855,-0.7660444378852844,399.6279602050781,302.4004821777344)" opacity="1" style="display: block;"><g opacity="1" transform="matrix(1,0,0,1,1.2580000162124634,2.078000068664551)"><path stroke-linecap="round" stroke-linejoin="miter" fill-opacity="0" stroke-miterlimit="4" stroke="rgb(23,98,223)" stroke-opacity="1" stroke-width="40" d=" M0,-100 C10.784000396728516,-100 21.17099952697754,-98.28900146484375 30.905000686645508,-95.125"></path></g></g><g transform="matrix(-0.5,-0.8660253882408142,0.8660253882408142,-0.5,398.82940673828125,302.1284484863281)" opacity="1" style="display: block;"><g opacity="1" transform="matrix(1,0,0,1,1.2580000162124634,2.078000068664551)"><path stroke-linecap="round" stroke-linejoin="miter" fill-opacity="0" stroke-miterlimit="4" stroke="rgb(23,98,223)" stroke-opacity="1" stroke-width="40" d=" M0,-100 C10.784000396728516,-100 21.17099952697754,-98.28900146484375 30.905000686645508,-95.125"></path></g></g><g transform="matrix(-0.1736481785774231,-0.9848077297210693,0.9848077297210693,-0.1736481785774231,398.1720275878906,301.5997314453125)" opacity="1" style="display: block;"><g opacity="1" transform="matrix(1,0,0,1,1.2580000162124634,2.078000068664551)"><path stroke-linecap="round" stroke-linejoin="miter" fill-opacity="0" stroke-miterlimit="4" stroke="rgb(23,98,223)" stroke-opacity="1" stroke-width="40" d=" M2.7019999027252197,-99.96399688720703 C13.46399974822998,-99.6780014038086 23.804000854492188,-97.68800354003906 33.4630012512207,-94.25399780273438"></path></g></g><g transform="matrix(0.1736481785774231,-0.9848077297210693,0.9848077297210693,0.1736481785774231,397.735107421875,300.8780517578125)" opacity="1" style="display: block;"><g opacity="1" transform="matrix(1,0,0,1,1.2580000162124634,2.078000068664551)"><path stroke-linecap="round" stroke-linejoin="miter" fill-opacity="0" stroke-miterlimit="4" stroke="rgb(23,98,223)" stroke-opacity="1" stroke-width="40" d=" M67.24099731445312,-73.99199676513672 C74.97599792480469,-66.95700073242188 81.6050033569336,-58.72800064086914 86.83499908447266,-49.597999572753906"></path></g></g><g transform="matrix(0.5,-0.8660253882408142,0.8660253882408142,0.5,397.5714111328125,300.0504455566406)" opacity="1" style="display: block;"><g opacity="1" transform="matrix(1,0,0,1,1.2580000162124634,2.078000068664551)"><path stroke-linecap="round" stroke-linejoin="miter" fill-opacity="0" stroke-miterlimit="4" stroke="rgb(23,98,223)" stroke-opacity="1" stroke-width="40" d=" M98.80000305175781,15.520999908447266 C97.1520004272461,26.07900047302246 93.8489990234375,36.09199905395508 89.16600036621094,45.2869987487793"></path></g></g><g transform="matrix(0.7660444378852844,-0.6427876353263855,0.6427876353263855,0.7660444378852844,397.7005920410156,299.216796875)" opacity="1" style="display: block;"><g opacity="1" transform="matrix(1,0,0,1,1.2580000162124634,2.078000068664551)"><path stroke-linecap="round" stroke-linejoin="miter" fill-opacity="0" stroke-miterlimit="4" stroke="rgb(23,98,223)" stroke-opacity="1" stroke-width="40" d=" M86.61599731445312,49.979000091552734 C81.34600067138672,59.084999084472656 74.68099975585938,67.28600311279297 66.91500091552734,74.28700256347656"></path></g></g><g transform="matrix(0.9396926164627075,-0.3420201539993286,0.3420201539993286,0.9396926164627075,398.1071472167969,298.4775695800781)" opacity="1" style="display: block;"><g opacity="1" transform="matrix(1,0,0,1,1.2580000162124634,2.078000068664551)"><path stroke-linecap="round" stroke-linejoin="miter" fill-opacity="0" stroke-miterlimit="4" stroke="rgb(23,98,223)" stroke-opacity="1" stroke-width="40" d=" M86.61599731445312,49.979000091552734 C81.34600067138672,59.084999084472656 74.68099975585938,67.28600311279297 66.91500091552734,74.28700256347656"></path></g></g></g><g clip-path="url(#__lottie_element_8)" transform="matrix(1,0,0,1,0,0)" opacity="1" style="display: block;"><g style="display: none;" transform="matrix(-0.5,-0.8660253882408142,0.8660253882408142,-0.5,398.82940673828125,302.1284484863281)" opacity="1"><g opacity="1" transform="matrix(1,0,0,1,1.2580000162124634,2.078000068664551)"><path stroke-linecap="round" stroke-linejoin="miter" fill-opacity="0" stroke-miterlimit="4" stroke="rgb(23,98,223)" stroke-opacity="1" stroke-width="40" d=" M0,-100 C10.784000396728516,-100 21.17099952697754,-98.28900146484375 30.905000686645508,-95.125"></path></g></g><g style="display: none;" transform="matrix(-0.1736481785774231,-0.9848077297210693,0.9848077297210693,-0.1736481785774231,398.1720275878906,301.5997314453125)" opacity="1"><g opacity="1" transform="matrix(1,0,0,1,1.2580000162124634,2.078000068664551)"><path stroke-linecap="round" stroke-linejoin="miter" fill-opacity="0" stroke-miterlimit="4" stroke="rgb(23,98,223)" stroke-opacity="1" stroke-width="40" d=" M0,-100 C10.784000396728516,-100 21.17099952697754,-98.28900146484375 30.905000686645508,-95.125"></path></g></g><g style="display: none;" transform="matrix(0.1736481785774231,-0.9848077297210693,0.9848077297210693,0.1736481785774231,397.735107421875,300.8780517578125)" opacity="1"><g opacity="1" transform="matrix(1,0,0,1,1.2580000162124634,2.078000068664551)"><path stroke-linecap="round" stroke-linejoin="miter" fill-opacity="0" stroke-miterlimit="4" stroke="rgb(23,98,223)" stroke-opacity="1" stroke-width="40" d=" M0,-100 C10.784000396728516,-100 21.17099952697754,-98.28900146484375 30.905000686645508,-95.125"></path></g></g><g style="display: none;" transform="matrix(0.5,-0.8660253882408142,0.8660253882408142,0.5,397.5714111328125,300.0504455566406)" opacity="1"><g opacity="1" transform="matrix(1,0,0,1,1.2580000162124634,2.078000068664551)"><path stroke-linecap="round" stroke-linejoin="miter" fill-opacity="0" stroke-miterlimit="4" stroke="rgb(23,98,223)" stroke-opacity="1" stroke-width="40" d=" M51.654998779296875,-85.6240005493164 C60.652000427246094,-80.18099975585938 68.7229995727539,-73.36000061035156 75.5770034790039,-65.45500183105469"></path></g></g><g style="display: none;" transform="matrix(0.7660444378852844,-0.6427876353263855,0.6427876353263855,0.7660444378852844,397.7005920410156,299.216796875)" opacity="1"><g opacity="1" transform="matrix(1,0,0,1,1.2580000162124634,2.078000068664551)"><path stroke-linecap="round" stroke-linejoin="miter" fill-opacity="0" stroke-miterlimit="4" stroke="rgb(23,98,223)" stroke-opacity="1" stroke-width="40" d=" M99.9800033569336,-2.010999917984009 C99.99299621582031,-1.3420000076293945 100,-0.671999990940094 100,0 C100,10.07800006866455 98.50599670410156,19.81100082397461 95.72699737548828,28.98699951171875"></path></g></g><g style="display: none;" transform="matrix(0.9396926164627075,-0.3420201539993286,0.3420201539993286,0.9396926164627075,398.1071472167969,298.4775695800781)" opacity="1"><g opacity="1" transform="matrix(1,0,0,1,1.2580000162124634,2.078000068664551)"><path stroke-linecap="round" stroke-linejoin="miter" fill-opacity="0" stroke-miterlimit="4" stroke="rgb(23,98,223)" stroke-opacity="1" stroke-width="40" d=" M86.61599731445312,49.979000091552734 C81.34600067138672,59.084999084472656 74.68099975585938,67.28600311279297 66.91500091552734,74.28700256347656"></path></g></g><g transform="matrix(1,0,0,1,398.74200439453125,297.9219970703125)" opacity="1" style="display: none;"><g opacity="1" transform="matrix(1,0,0,1,1.2580000162124634,2.078000068664551)"><path stroke-linecap="round" stroke-linejoin="miter" fill-opacity="0" stroke-miterlimit="4" stroke="rgb(23,98,223)" stroke-opacity="1" stroke-width="40" d=" M86.61599731445312,49.979000091552734 C81.34600067138672,59.084999084472656 74.68099975585938,67.28600311279297 66.91500091552734,74.28700256347656"></path></g></g><g transform="matrix(0.9396926164627075,0.3420201539993286,-0.3420201539993286,0.9396926164627075,399.5285949707031,297.6170654296875)" opacity="1" style="display: none;"><g opacity="1" transform="matrix(1,0,0,1,1.2580000162124634,2.078000068664551)"><path stroke-linecap="round" stroke-linejoin="miter" fill-opacity="0" stroke-miterlimit="4" stroke="rgb(23,98,223)" stroke-opacity="1" stroke-width="40" d=" M86.61599731445312,49.979000091552734 C81.34600067138672,59.084999084472656 74.68099975585938,67.28600311279297 66.91500091552734,74.28700256347656"></path></g></g><g transform="matrix(0.7660444378852844,0.6427876353263855,-0.6427876353263855,0.7660444378852844,400.3720397949219,297.5995178222656)" opacity="1" style="display: none;"><g opacity="1" transform="matrix(1,0,0,1,1.2580000162124634,2.078000068664551)"><path stroke-linecap="round" stroke-linejoin="miter" fill-opacity="0" stroke-miterlimit="4" stroke="rgb(23,98,223)" stroke-opacity="1" stroke-width="40" d=" M86.61599731445312,49.979000091552734 C81.34600067138672,59.084999084472656 74.68099975585938,67.28600311279297 66.91500091552734,74.28700256347656"></path></g></g><g transform="matrix(0.5,0.8660253882408142,-0.8660253882408142,0.5,401.17059326171875,297.8715515136719)" opacity="1" style="display: none;"><g opacity="1" transform="matrix(1,0,0,1,1.2580000162124634,2.078000068664551)"><path stroke-linecap="round" stroke-linejoin="miter" fill-opacity="0" stroke-miterlimit="4" stroke="rgb(23,98,223)" stroke-opacity="1" stroke-width="40" d=" M86.61599731445312,49.979000091552734 C81.34600067138672,59.084999084472656 74.68099975585938,67.28600311279297 66.91500091552734,74.28700256347656"></path></g></g><g transform="matrix(0.1736481785774231,0.9848077297210693,-0.9848077297210693,0.1736481785774231,401.8279724121094,298.4002685546875)" opacity="1" style="display: none;"><g opacity="1" transform="matrix(1,0,0,1,1.2580000162124634,2.078000068664551)"><path stroke-linecap="round" stroke-linejoin="miter" fill-opacity="0" stroke-miterlimit="4" stroke="rgb(23,98,223)" stroke-opacity="1" stroke-width="40" d=" M86.61599731445312,49.979000091552734 C81.34600067138672,59.084999084472656 74.68099975585938,67.28600311279297 66.91500091552734,74.28700256347656"></path></g></g><g transform="matrix(-0.1736481785774231,0.9848077297210693,-0.9848077297210693,-0.1736481785774231,402.264892578125,299.1219482421875)" opacity="1" style="display: none;"><g opacity="1" transform="matrix(1,0,0,1,1.2580000162124634,2.078000068664551)"><path stroke-linecap="round" stroke-linejoin="miter" fill-opacity="0" stroke-miterlimit="4" stroke="rgb(23,98,223)" stroke-opacity="1" stroke-width="40" d=" M86.61599731445312,49.979000091552734 C81.34600067138672,59.084999084472656 74.68099975585938,67.28600311279297 66.91500091552734,74.28700256347656"></path></g></g><g transform="matrix(-0.5,0.8660253882408142,-0.8660253882408142,-0.5,402.4285888671875,299.9495544433594)" opacity="1" style="display: block;"><g opacity="1" transform="matrix(1,0,0,1,1.2580000162124634,2.078000068664551)"><path stroke-linecap="round" stroke-linejoin="miter" fill-opacity="0" stroke-miterlimit="4" stroke="rgb(23,98,223)" stroke-opacity="1" stroke-width="40" d=" M0,-100 C10.784000396728516,-100 21.17099952697754,-98.28900146484375 30.905000686645508,-95.125"></path></g></g><g transform="matrix(-0.7660444378852844,0.6427876353263855,-0.6427876353263855,-0.7660444378852844,402.2994079589844,300.783203125)" opacity="1" style="display: block;"><g opacity="1" transform="matrix(1,0,0,1,1.2580000162124634,2.078000068664551)"><path stroke-linecap="round" stroke-linejoin="miter" fill-opacity="0" stroke-miterlimit="4" stroke="rgb(23,98,223)" stroke-opacity="1" stroke-width="40" d=" M0,-100 C10.784000396728516,-100 21.17099952697754,-98.28900146484375 30.905000686645508,-95.125"></path></g></g><g transform="matrix(-0.9396926164627075,0.3420201539993286,-0.3420201539993286,-0.9396926164627075,401.8928527832031,301.5224304199219)" opacity="1" style="display: block;"><g opacity="1" transform="matrix(1,0,0,1,1.2580000162124634,2.078000068664551)"><path stroke-linecap="round" stroke-linejoin="miter" fill-opacity="0" stroke-miterlimit="4" stroke="rgb(23,98,223)" stroke-opacity="1" stroke-width="40" d=" M0,-100 C10.784000396728516,-100 21.17099952697754,-98.28900146484375 30.905000686645508,-95.125"></path></g></g><g transform="matrix(-1,0,0,-1,401.25799560546875,302.0780029296875)" opacity="1" style="display: block;"><g opacity="1" transform="matrix(1,0,0,1,1.2580000162124634,2.078000068664551)"><path stroke-linecap="round" stroke-linejoin="miter" fill-opacity="0" stroke-miterlimit="4" stroke="rgb(23,98,223)" stroke-opacity="1" stroke-width="40" d=" M0,-100 C10.784000396728516,-100 21.17099952697754,-98.28900146484375 30.905000686645508,-95.125"></path></g></g><g transform="matrix(-0.9396926164627075,-0.3420201539993286,0.3420201539993286,-0.9396926164627075,400.4714050292969,302.3829345703125)" opacity="1" style="display: block;"><g opacity="1" transform="matrix(1,0,0,1,1.2580000162124634,2.078000068664551)"><path stroke-linecap="round" stroke-linejoin="miter" fill-opacity="0" stroke-miterlimit="4" stroke="rgb(23,98,223)" stroke-opacity="1" stroke-width="40" d=" M0,-100 C10.784000396728516,-100 21.17099952697754,-98.28900146484375 30.905000686645508,-95.125"></path></g></g><g transform="matrix(-0.7660444378852844,-0.6427876353263855,0.6427876353263855,-0.7660444378852844,399.6279602050781,302.4004821777344)" opacity="1" style="display: block;"><g opacity="1" transform="matrix(1,0,0,1,1.2580000162124634,2.078000068664551)"><path stroke-linecap="round" stroke-linejoin="miter" fill-opacity="0" stroke-miterlimit="4" stroke="rgb(23,98,223)" stroke-opacity="1" stroke-width="40" d=" M0,-100 C10.784000396728516,-100 21.17099952697754,-98.28900146484375 30.905000686645508,-95.125"></path></g></g><g transform="matrix(-0.5,-0.8660253882408142,0.8660253882408142,-0.5,398.82940673828125,302.1284484863281)" opacity="1" style="display: block;"><g opacity="1" transform="matrix(1,0,0,1,1.2580000162124634,2.078000068664551)"><path stroke-linecap="round" stroke-linejoin="miter" fill-opacity="0" stroke-miterlimit="4" stroke="rgb(23,98,223)" stroke-opacity="1" stroke-width="40" d=" M0,-100 C10.784000396728516,-100 21.17099952697754,-98.28900146484375 30.905000686645508,-95.125"></path></g></g><g transform="matrix(-0.1736481785774231,-0.9848077297210693,0.9848077297210693,-0.1736481785774231,398.1720275878906,301.5997314453125)" opacity="1" style="display: block;"><g opacity="1" transform="matrix(1,0,0,1,1.2580000162124634,2.078000068664551)"><path stroke-linecap="round" stroke-linejoin="miter" fill-opacity="0" stroke-miterlimit="4" stroke="rgb(23,98,223)" stroke-opacity="1" stroke-width="40" d=" M2.7019999027252197,-99.96399688720703 C13.46399974822998,-99.6780014038086 23.804000854492188,-97.68800354003906 33.4630012512207,-94.25399780273438"></path></g></g><g transform="matrix(0.1736481785774231,-0.9848077297210693,0.9848077297210693,0.1736481785774231,397.735107421875,300.8780517578125)" opacity="1" style="display: block;"><g opacity="1" transform="matrix(1,0,0,1,1.2580000162124634,2.078000068664551)"><path stroke-linecap="round" stroke-linejoin="miter" fill-opacity="0" stroke-miterlimit="4" stroke="rgb(23,98,223)" stroke-opacity="1" stroke-width="40" d=" M67.24099731445312,-73.99199676513672 C74.97599792480469,-66.95700073242188 81.6050033569336,-58.72800064086914 86.83499908447266,-49.597999572753906"></path></g></g><g transform="matrix(0.5,-0.8660253882408142,0.8660253882408142,0.5,397.5714111328125,300.0504455566406)" opacity="1" style="display: block;"><g opacity="1" transform="matrix(1,0,0,1,1.2580000162124634,2.078000068664551)"><path stroke-linecap="round" stroke-linejoin="miter" fill-opacity="0" stroke-miterlimit="4" stroke="rgb(23,98,223)" stroke-opacity="1" stroke-width="40" d=" M98.80000305175781,15.520999908447266 C97.1520004272461,26.07900047302246 93.8489990234375,36.09199905395508 89.16600036621094,45.2869987487793"></path></g></g><g transform="matrix(0.7660444378852844,-0.6427876353263855,0.6427876353263855,0.7660444378852844,397.7005920410156,299.216796875)" opacity="1" style="display: block;"><g opacity="1" transform="matrix(1,0,0,1,1.2580000162124634,2.078000068664551)"><path stroke-linecap="round" stroke-linejoin="miter" fill-opacity="0" stroke-miterlimit="4" stroke="rgb(23,98,223)" stroke-opacity="1" stroke-width="40" d=" M86.61599731445312,49.979000091552734 C81.34600067138672,59.084999084472656 74.68099975585938,67.28600311279297 66.91500091552734,74.28700256347656"></path></g></g><g transform="matrix(0.9396926164627075,-0.3420201539993286,0.3420201539993286,0.9396926164627075,398.1071472167969,298.4775695800781)" opacity="1" style="display: block;"><g opacity="1" transform="matrix(1,0,0,1,1.2580000162124634,2.078000068664551)"><path stroke-linecap="round" stroke-linejoin="miter" fill-opacity="0" stroke-miterlimit="4" stroke="rgb(23,98,223)" stroke-opacity="1" stroke-width="40" d=" M86.61599731445312,49.979000091552734 C81.34600067138672,59.084999084472656 74.68099975585938,67.28600311279297 66.91500091552734,74.28700256347656"></path></g></g></g></g></svg>
